<?xml version="1.0" encoding="UTF-8"?>
<svg width="752pt" height="752pt" version="1.1" viewBox="0 0 752 752" xmlns="http://www.w3.org/2000/svg">
 <g>
  <path d="m584.67 314.95-186.1-71.777c-14.43-5.5508-30.707-5.5508-45.137 0l-186.11 71.777c-9.9883 3.6992-16.648 13.32-16.648 24.051 0 10.73 6.6602 20.348 16.648 24.051l49.578 19.238v86.203c0 75.477 85.098 85.098 159.09 85.098s159.09-9.6211 159.09-85.098v-72.148c0-8.5078-4.0703-16.648-11.098-21.461-7.0312-4.8086-15.91-5.918-24.051-2.9609l-109.52 42.184c-9.25 3.6992-19.98 3.6992-29.23 0l-185.73-71.777c-1.8516-0.73828-2.2188-2.2188-2.2188-3.3281s0.37109-2.5898 2.2188-3.3281l186.1-71.406c9.25-3.6992 19.98-3.6992 29.23 0l186.1 71.406c2.2188 0.73828 2.9609 2.5898 2.9609 3.6992v0.73828 54.387c0 6.2891 4.8086 11.098 11.098 11.098 6.2891 0 11.098-4.8086 11.098-11.098l0.003906-54.387c0-11.102-6.6602-21.09-17.391-25.16z"/>
  <path d="m601.69 468.5v-18.5c0-6.2891-4.8086-11.098-11.098-11.098s-11.098 4.8086-11.098 11.098v18.5c0 6.2891 4.8086 11.098 11.098 11.098 6.2891 0.003906 11.098-4.8047 11.098-11.098z"/>
 </g>
</svg>
